<?xml version="1.0" encoding="utf-8"?>
<!-- Generator: Adobe Illustrator 24.0.1, SVG Export Plug-In . SVG Version: 6.00 Build 0)  -->
<svg version="1.1" id="Layer_1" xmlns="http://www.w3.org/2000/svg" xmlns:xlink="http://www.w3.org/1999/xlink" x="0px" y="0px"
	 viewBox="0 0 53.31 20" style="enable-background:new 0 0 53.31 20;" xml:space="preserve">
<style type="text/css">
	.st0{fill:#FFFFFF;}
	.st1{fill:#EA1E26;}
	.st2{fill:#949699;}
</style>
<rect x="19.82" y="0.01" class="st0" width="33.51" height="19.97"/>
<g>
	<path class="st1" d="M52.73,1.7c-0.79-0.66-1.63-1.21-2.61-1.65c0.12-0.02,0.19-0.03,0.25-0.03c0.89,0,2.96,0,2.96,0
		c-0.01,3.09,0,6.45,0,9.55c0,0.04-0.01,0.07-0.01,0.11c-0.02,0-0.05,0-0.06,0C52.69,8.67,51.83,8,50.88,7.42
		c-1.42-0.86-2.85-1.69-4.27-2.55c-0.33-0.2-0.66-0.42-0.95-0.68c-0.56-0.5-0.49-1.09,0.15-1.46c0.86-0.49,1.75-0.42,2.6,0
		c0.52,0.26,0.97,0.64,1.45,0.99c0.11,0.08,0.18,0.13,0.31,0.03c0.82-0.65,1.66-1.3,2.48-1.95C52.67,1.78,52.69,1.75,52.73,1.7z"/>
	<g>
		<polygon class="st1" points="23.59,18.57 24.15,18.57 23.87,17.97 		"/>
		<path class="st1" d="M26.36,18.22c0.03-0.05,0.04-0.1,0.04-0.15c0-0.06-0.01-0.11-0.04-0.15c-0.03-0.05-0.07-0.08-0.12-0.1
			c-0.05-0.02-0.13-0.03-0.24-0.03H25.7v0.56l0.28,0c0.11,0,0.19-0.01,0.24-0.03C26.28,18.29,26.33,18.26,26.36,18.22z"/>
		<path class="st1" d="M53.33,19.67c-0.01-2.08,0-4.16,0-6.23c0-0.1,0-0.21,0-0.39c-0.08,0.1-0.1,0.13-0.12,0.16
			c-0.64,1.1-1.61,1.78-2.77,2.23c-1.34,0.52-2.74,0.63-4.15,0.51c-1.36-0.11-2.6-0.56-3.67-1.42c-0.04-0.03-0.1-0.06-0.17-0.1
			c0.13,0.49,0.25,0.95,0.37,1.41c-0.08,0.02-0.12,0.04-0.17,0.04c-1.1,0.07-2.19,0.13-3.29,0.2c-0.2,0.01-0.28-0.06-0.33-0.24
			c-0.56-2.04-1.13-4.07-1.7-6.11c-0.3-1.07-0.6-2.15-0.9-3.22c-0.02,0-0.04,0-0.06,0c-0.34,0.94-0.69,1.89-1.03,2.83
			c-0.84,2.31-1.67,4.62-2.51,6.93c-0.03,0.09-0.18,0.19-0.28,0.2c-0.98,0.07-1.95,0.12-2.93,0.18c-0.19,0.01-0.28-0.06-0.36-0.22
			c-1.48-2.99-2.97-5.97-4.45-8.95c-0.05-0.1-0.11-0.21-0.19-0.37c-0.24,1.46-0.46,2.84-0.68,4.21c-0.29,1.81-0.59,3.62-0.87,5.43
			c-0.04,0.23-0.14,0.3-0.36,0.31c-0.87,0.04-1.73,0.1-2.6,0.14c-0.23,0.01-0.3,0.09-0.3,0.32c0.01,0.72,0.01,1.44,0,2.15
			c0,0.24,0.06,0.32,0.31,0.32c10.91-0.01,21.83-0.01,32.74,0l0,0h0.46V19.67C53.33,19.67,53.33,19.67,53.33,19.67z M22.11,19.27
			l-0.16-1.18l-0.58,1.18h-0.04l-0.59-1.19l-0.16,1.19h-0.16l0.24-1.65h0.03l0.67,1.35l0.66-1.35h0.03l0.24,1.65H22.11z
			 M24.48,19.27l-0.26-0.54h-0.71l-0.26,0.54h-0.18l0.78-1.65h0.04l0.77,1.65H24.48z M26.39,19.27l-0.59-0.76H25.7v0.76h-0.16v-1.65
			h0.33c0.18,0,0.31,0.01,0.37,0.02c0.1,0.02,0.18,0.07,0.24,0.14s0.09,0.16,0.09,0.27c0,0.09-0.02,0.17-0.06,0.24
			c-0.04,0.07-0.1,0.12-0.18,0.15s-0.19,0.05-0.32,0.05l0.59,0.76H26.39z M28.43,19.27l-0.72-0.77v0.77h-0.17v-1.65h0.17v0.62
			l0.66-0.62h0.22l-0.79,0.74l0.85,0.91H28.43z M30.46,17.79h-0.78v0.52h0.77v0.16h-0.77v0.65h0.77v0.16h-0.94v-1.65h0.94V17.79z
			 M32.1,17.79h-0.37v1.48h-0.17v-1.48H31.2v-0.16h0.9V17.79z M33.1,19.27h-0.16v-1.65h0.16V19.27z M35.39,19.27h-0.04l-1.09-1.25
			v1.25h-0.17v-1.65h0.04l1.1,1.26v-1.26h0.16V19.27z M37.86,19.09c-0.15,0.15-0.35,0.22-0.6,0.22c-0.3,0-0.55-0.1-0.72-0.31
			c-0.14-0.16-0.2-0.34-0.2-0.55c0-0.16,0.04-0.3,0.12-0.44c0.08-0.13,0.19-0.24,0.32-0.31s0.29-0.11,0.46-0.11
			c0.14,0,0.27,0.03,0.39,0.08c0.12,0.05,0.24,0.13,0.36,0.24l-0.13,0.12c-0.09-0.09-0.19-0.16-0.3-0.21
			c-0.11-0.05-0.22-0.07-0.32-0.07c-0.13,0-0.25,0.03-0.37,0.1s-0.21,0.15-0.27,0.26c-0.06,0.11-0.1,0.22-0.1,0.34
			c0,0.12,0.03,0.24,0.1,0.35c0.07,0.11,0.16,0.2,0.28,0.26s0.25,0.1,0.38,0.1c0.17,0,0.31-0.05,0.43-0.14
			c0.12-0.1,0.19-0.22,0.21-0.37h-0.52v-0.16h0.71C38.09,18.74,38.01,18.94,37.86,19.09z M40.93,19.18
			c-0.09,0.09-0.2,0.13-0.33,0.13c-0.1,0-0.19-0.03-0.27-0.08s-0.16-0.14-0.22-0.27l0.14-0.08c0.1,0.18,0.21,0.27,0.34,0.27
			c0.06,0,0.11-0.01,0.16-0.04c0.05-0.03,0.09-0.06,0.11-0.1c0.03-0.04,0.04-0.09,0.04-0.14c0-0.06-0.02-0.11-0.06-0.16
			c-0.05-0.07-0.15-0.16-0.28-0.26c-0.14-0.1-0.22-0.18-0.26-0.22c-0.06-0.08-0.09-0.16-0.09-0.25c0-0.07,0.02-0.14,0.05-0.2
			c0.03-0.06,0.08-0.11,0.14-0.14c0.06-0.03,0.13-0.05,0.2-0.05c0.08,0,0.15,0.02,0.22,0.06c0.07,0.04,0.14,0.11,0.21,0.21
			l-0.13,0.1c-0.06-0.08-0.11-0.14-0.16-0.16c-0.04-0.03-0.09-0.04-0.14-0.04c-0.07,0-0.12,0.02-0.16,0.06
			c-0.04,0.04-0.06,0.09-0.06,0.15c0,0.04,0.01,0.07,0.02,0.1c0.01,0.03,0.04,0.07,0.08,0.11c0.02,0.02,0.09,0.08,0.21,0.16
			c0.14,0.11,0.24,0.2,0.29,0.28c0.05,0.08,0.08,0.16,0.08,0.25C41.07,18.99,41.02,19.09,40.93,19.18z M42.98,17.79H42.2v0.52h0.77
			v0.16H42.2v0.65h0.77v0.16h-0.94v-1.65h0.94V17.79z M44.74,19.27l-0.59-0.76h-0.09v0.76h-0.16v-1.65h0.33
			c0.18,0,0.31,0.01,0.37,0.02c0.1,0.02,0.18,0.07,0.24,0.14s0.09,0.16,0.09,0.27c0,0.09-0.02,0.17-0.06,0.24
			c-0.04,0.07-0.1,0.12-0.18,0.15s-0.19,0.05-0.32,0.05l0.59,0.76H44.74z M46.42,19.27h-0.04l-0.71-1.65h0.18l0.55,1.27l0.55-1.27
			h0.18L46.42,19.27z M48.17,19.27h-0.16v-1.65h0.16V19.27z M49.47,18.95c0.14,0.13,0.31,0.2,0.52,0.2c0.23,0,0.42-0.09,0.58-0.27
			l0.13,0.1c-0.08,0.1-0.18,0.19-0.31,0.24s-0.26,0.09-0.41,0.09c-0.29,0-0.52-0.1-0.68-0.29c-0.14-0.16-0.21-0.36-0.21-0.59
			c0-0.24,0.08-0.44,0.25-0.61c0.17-0.16,0.38-0.25,0.63-0.25c0.15,0,0.29,0.03,0.42,0.09c0.12,0.06,0.23,0.15,0.3,0.26l-0.13,0.1
			c-0.07-0.09-0.16-0.16-0.26-0.21c-0.1-0.05-0.21-0.07-0.33-0.07c-0.13,0-0.25,0.03-0.36,0.09c-0.11,0.06-0.2,0.15-0.26,0.25
			c-0.06,0.11-0.09,0.23-0.09,0.36C49.26,18.65,49.33,18.82,49.47,18.95z M52.59,17.79h-0.78v0.52h0.77v0.16h-0.77v0.65h0.77v0.16
			h-0.94v-1.65h0.94V17.79z"/>
		<path class="st1" d="M44.71,18.22c0.03-0.05,0.04-0.1,0.04-0.15c0-0.06-0.01-0.11-0.04-0.15c-0.03-0.05-0.07-0.08-0.12-0.1
			c-0.05-0.02-0.13-0.03-0.24-0.03h-0.29v0.56l0.28,0c0.11,0,0.19-0.01,0.24-0.03C44.63,18.29,44.68,18.26,44.71,18.22z"/>
	</g>
	<g>
		<path class="st2" d="M7.29,9.54l-0.13,0.1C7.09,9.55,7.01,9.48,6.91,9.43c-0.1-0.05-0.21-0.07-0.33-0.07
			c-0.13,0-0.25,0.03-0.36,0.09C6.1,9.52,6.01,9.6,5.95,9.71c-0.06,0.11-0.09,0.23-0.09,0.36c0,0.2,0.07,0.37,0.21,0.5
			c0.14,0.13,0.31,0.2,0.52,0.2c0.23,0,0.42-0.09,0.58-0.27l0.13,0.1c-0.08,0.1-0.18,0.19-0.31,0.24c-0.12,0.06-0.26,0.09-0.41,0.09
			c-0.29,0-0.52-0.1-0.68-0.29c-0.14-0.16-0.21-0.36-0.21-0.59c0-0.24,0.08-0.44,0.25-0.61C6.11,9.28,6.32,9.2,6.57,9.2
			c0.15,0,0.29,0.03,0.42,0.09C7.11,9.35,7.21,9.43,7.29,9.54z"/>
		<path class="st2" d="M8.84,9.24H9v1.65H8.84V9.24z"/>
		<path class="st2" d="M10.45,9.4V9.24h0.9V9.4h-0.37v1.48h-0.17V9.4H10.45z"/>
		<path class="st2" d="M12.7,9.24h0.19l0.42,0.68l0.41-0.68h0.19l-0.52,0.86v0.79h-0.16V10.1L12.7,9.24z"/>
	</g>
	<path class="st1" d="M19.82,13.47c0-1.15,0-2.31,0-3.46c0-3.22,0.01-6.45,0-9.67c0-0.26,0.08-0.33,0.33-0.33
		c7.96,0.01,15.92,0,23.87,0c0.09,0,0.18,0,0.33,0c-0.36,0.21-0.68,0.38-0.97,0.57c-0.74,0.5-1.36,1.11-1.68,1.97
		c-0.38,1.04-0.2,2.02,0.43,2.91c0.49,0.7,1.14,1.24,1.85,1.68c1.33,0.83,2.7,1.62,4.04,2.45c0.5,0.31,0.99,0.64,1.41,1.04
		c0.68,0.64,0.61,1.38-0.15,1.91c-1.07,0.75-2.22,0.73-3.36,0.15c-0.59-0.3-1.07-0.74-1.48-1.26c-0.15-0.19-0.26-0.2-0.46-0.08
		c-0.68,0.39-1.37,0.75-2.09,1.15c-0.14-0.49-0.27-0.95-0.4-1.42c-0.7-2.53-1.41-5.06-2.11-7.59c-0.26-0.95-0.53-1.9-0.78-2.86
		c-0.05-0.19-0.13-0.25-0.33-0.23c-1.11,0.08-2.21,0.14-3.32,0.22c-0.09,0.01-0.21,0.12-0.24,0.21c-0.52,1.41-1.02,2.82-1.53,4.23
		c-0.77,2.13-1.53,4.26-2.3,6.38c-0.03,0.08-0.07,0.15-0.12,0.27c-0.28-0.57-0.54-1.09-0.8-1.61c-1.42-2.87-2.85-5.74-4.27-8.61
		c-0.12-0.24-0.25-0.34-0.53-0.32c-1.05,0.08-2.1,0.13-3.15,0.19c-0.17,0.01-0.23,0.07-0.26,0.24c-0.34,2.18-0.69,4.36-1.04,6.54
		c-0.28,1.77-0.57,3.55-0.86,5.32C19.85,13.47,19.83,13.47,19.82,13.47z"/>
	<path class="st2" d="M10.2,19.98c-1.78,0.03-3.43-0.26-4.95-1.06c-2.64-1.38-4.33-3.53-4.97-6.45c-0.39-1.79-0.38-3.59,0.11-5.36
		c0.74-2.67,2.41-4.59,4.83-5.89c1.83-0.98,3.78-1.35,5.82-1.19c2.06,0.16,3.93,0.87,5.6,2.08c0.61,0.44,1.14,0.95,1.66,1.49
		c0.17,0.18,0.14,0.29-0.03,0.45c-0.7,0.65-1.4,1.31-2.08,1.98c-0.19,0.18-0.29,0.2-0.48,0c-1.11-1.15-2.41-2-3.99-2.33
		C9.4,3.22,7.29,3.66,5.56,5.36C4.38,6.51,3.75,7.93,3.67,9.58c-0.06,1.41,0.18,2.75,0.93,3.96c1,1.61,2.48,2.54,4.34,2.85
		c1.5,0.26,2.95,0.1,4.33-0.57c0.93-0.45,1.71-1.12,2.45-1.84c0.18-0.18,0.29-0.18,0.47,0.01c0.68,0.74,1.38,1.46,2.08,2.18
		c0.1,0.11,0.16,0.18,0.02,0.31c-1.11,1.05-2.28,2.01-3.68,2.64C13.18,19.76,11.68,20.01,10.2,19.98z"/>
</g>
</svg>
