<?xml version="1.0" standalone="no"?>
<!DOCTYPE svg PUBLIC "-//W3C//DTD SVG 20010904//EN"
 "http://www.w3.org/TR/2001/REC-SVG-20010904/DTD/svg10.dtd">
<svg version="1.0" xmlns="http://www.w3.org/2000/svg"
 width="500.000000pt" height="500.000000pt" viewBox="0 0 500.000000 500.000000"
 preserveAspectRatio="xMidYMid meet">
<metadata>
Created by potrace 1.11, written by Peter Selinger 2001-2013
</metadata>
<g transform="translate(0.000000,500.000000) scale(0.100000,-0.100000)"
fill="#000000" stroke="none">
<path d="M705 4983 c-314 -67 -565 -295 -664 -604 -14 -44 -19 -68 -30 -142
-4 -32 -7 -829 -6 -1770 1 -1550 3 -1718 17 -1778 46 -183 117 -310 242 -434
111 -110 218 -174 373 -222 l88 -28 1755 -2 c1876 -3 1798 -4 1940 45 271 94
488 333 560 616 20 77 20 107 19 1840 -1 1688 -2 1764 -20 1834 -83 325 -346
576 -679 649 -19 4 -820 8 -1780 9 -1520 2 -1754 1 -1815 -13z m3555 -216
c191 -53 328 -149 423 -298 45 -71 85 -183 95 -267 9 -83 8 -3383 -2 -3432
-44 -221 -177 -396 -371 -486 -146 -68 -20 -64 -1925 -61 -1411 2 -1732 5
-1765 16 -80 26 -201 91 -251 133 -126 108 -209 255 -231 413 -5 33 -8 814 -8
1735 1 1583 2 1679 19 1751 62 256 278 460 531 499 62 10 3451 7 3485 -3z"/>
<path d="M4068 4215 c-2 -1 -25 -5 -53 -8 -164 -19 -466 -100 -633 -171 -399
-169 -1130 -934 -1359 -1423 -24 -51 -43 -96 -43 -101 0 -4 28 -21 63 -37 461
-213 534 -268 644 -487 67 -134 155 -432 234 -793 60 -275 135 -362 349 -399
68 -12 193 -15 624 -16 l538 0 -7 47 c-9 66 -33 111 -65 128 -15 8 -57 21 -95
30 -113 26 -160 67 -212 183 -21 47 -64 182 -78 242 -3 14 -30 89 -69 197 -49
135 -158 342 -248 476 -90 133 -228 276 -364 377 -170 128 -429 232 -636 256
-29 3 -56 9 -60 13 -13 12 -18 83 -7 105 6 11 42 51 81 89 147 143 346 271
581 372 70 30 231 66 313 70 180 9 271 -48 358 -223 46 -92 73 -108 116 -67
42 40 105 172 178 375 17 47 71 193 121 325 49 132 90 249 91 260 5 48 -2 76
-27 106 -45 53 -102 72 -225 75 -58 1 -108 1 -110 -1z"/>
<path d="M574 4031 l0 -59 74 -39 c130 -67 190 -143 201 -258 3 -33 6 -631 6
-1330 l0 -1270 -29 -43 c-41 -61 -121 -101 -226 -116 -24 -3 -25 -6 -25 -69
l0 -67 812 0 813 0 0 68 c0 66 -1 68 -27 70 -127 10 -232 85 -251 177 -11 54
-8 2499 3 2589 13 108 71 181 195 245 l80 42 0 60 0 59 -813 0 -812 0 -1 -59z"/>
</g>
</svg>
